<svg width="191" height="200" viewBox="0 0 191 200" fill="none" xmlns="http://www.w3.org/2000/svg">
<rect width="100" height="100" transform="matrix(1 0 0 -1 91 100)" fill="#2C6269"/>
<path fill-rule="evenodd" clip-rule="evenodd" d="M91 200C35.7715 200 -9 155.228 -9 100C-9 44.7715 35.7715 0 91 0C146.228 0 191 44.7715 191 100C191 155.228 146.228 200 91 200ZM91 133C72.7746 133 58 118.225 58 100C58 81.7746 72.7746 67 91 67C109.225 67 124 81.7746 124 100C124 118.225 109.225 133 91 133Z" fill="#012F34"/>
<path fill-rule="evenodd" clip-rule="evenodd" d="M91 56H191V60H91V56ZM91 64H191V68H91V64ZM191 72H91V76H191V72ZM91 80H191V84H91V80ZM191 88H91V92H191V88ZM91 96H191V100H91V96Z" fill="#79C8C7"/>
<path fill-rule="evenodd" clip-rule="evenodd" d="M191 100H187V104H191V100ZM180 100H184V104H180V100ZM180 108H184V112H180V108ZM184 116H180V120H184V116ZM180 124H184V128H180V124ZM184 132H180V136H184V132ZM180 140H184V144H180V140ZM177 100H173V104H177V100ZM177 108H173V112H177V108ZM173 116H177V120H173V116ZM177 124H173V128H177V124ZM173 132H177V136H173V132ZM177 140H173V144H177V140ZM191 108H187V112H191V108ZM170 100H166V104H170V100ZM170 108H166V112H170V108ZM166 116H170V120H166V116ZM170 124H166V128H170V124ZM166 132H170V136H166V132ZM170 140H166V144H170V140ZM191 116H187V120H191V116ZM163 100H159V104H163V100ZM163 108H159V112H163V108ZM159 116H163V120H159V116ZM163 124H159V128H163V124ZM159 132H163V136H159V132ZM163 140H159V144H163V140ZM191 124H187V128H191V124ZM156 100H152V104H156V100ZM156 108H152V112H156V108ZM152 116H156V120H152V116ZM156 124H152V128H156V124ZM152 132H156V136H152V132ZM156 140H152V144H156V140ZM191 132H187V136H191V132ZM149 100H145V104H149V100ZM149 108H145V112H149V108ZM145 116H149V120H145V116ZM149 124H145V128H149V124ZM145 132H149V136H145V132ZM149 140H145V144H149V140ZM191 140H187V144H191V140ZM142 100H138V104H142V100ZM142 108H138V112H142V108ZM138 116H142V120H138V116ZM142 124H138V128H142V124ZM138 132H142V136H138V132ZM142 140H138V144H142V140Z" fill="#F67E7E"/>
</svg>
