<svg width="200" height="200" viewBox="0 0 200 200" fill="none" xmlns="http://www.w3.org/2000/svg">
<g id="listimg">
<rect id="Rectangle" x="100" y="135" width="100" height="100" transform="rotate(-180 100 135)" fill="#2C6269"/>
<path id="Combined Shape Copy" fill-rule="evenodd" clip-rule="evenodd" d="M100 235C155.228 235 200 190.228 200 135C200 79.7715 155.228 35 100 35C44.7715 35 0 79.7715 0 135C0 190.228 44.7715 235 100 235ZM100 168C118.225 168 133 153.225 133 135C133 116.775 118.225 102 100 102C81.7746 102 67 116.775 67 135C67 153.225 81.7746 168 100 168Z" fill="#004047"/>
<path id="Combined Shape" fill-rule="evenodd" clip-rule="evenodd" d="M100 91H0V95H100V91ZM100 99H0V103H100V99ZM0 107H100V111H0V107ZM100 115H0V119H100V115ZM0 123H100V127H0V123ZM100 131H0V135H100V131Z" fill="#F67E7E"/>
<path id="Combined Shape_2" fill-rule="evenodd" clip-rule="evenodd" d="M0 -9H4V-5H0V-9ZM11 -9H7V-5H11V-9ZM11 -1H7V3H11V-1ZM7 7H11V11H7V7ZM11 15H7V19H11V15ZM7 23H11V27H7V23ZM11 31H7V35H11V31ZM14 -9H18V-5H14V-9ZM14 -1H18V3H14V-1ZM18 7H14V11H18V7ZM14 15H18V19H14V15ZM18 23H14V27H18V23ZM14 31H18V35H14V31ZM0 -1H4V3H0V-1ZM21 -9H25V-5H21V-9ZM21 -1H25V3H21V-1ZM25 7H21V11H25V7ZM21 15H25V19H21V15ZM25 23H21V27H25V23ZM21 31H25V35H21V31ZM0 7H4V11H0V7ZM28 -9H32V-5H28V-9ZM28 -1H32V3H28V-1ZM32 7H28V11H32V7ZM28 15H32V19H28V15ZM32 23H28V27H32V23ZM28 31H32V35H28V31ZM0 15H4V19H0V15ZM35 -9H39V-5H35V-9ZM35 -1H39V3H35V-1ZM39 7H35V11H39V7ZM35 15H39V19H35V15ZM39 23H35V27H39V23ZM35 31H39V35H35V31ZM0 23H4V27H0V23ZM42 -9H46V-5H42V-9ZM42 -1H46V3H42V-1ZM46 7H42V11H46V7ZM42 15H46V19H42V15ZM46 23H42V27H46V23ZM42 31H46V35H42V31ZM0 31H4V35H0V31ZM49 -9H53V-5H49V-9ZM49 -1H53V3H49V-1ZM53 7H49V11H53V7ZM49 15H53V19H49V15ZM53 23H49V27H53V23ZM49 31H53V35H49V31Z" fill="#79C8C7"/>
</g>
</svg>
